# xmcd
#
# Track frame offsets:
#	150
#	11537
#	20225
#	31437
#	42300
#	50137
#	62375
#	72475
#	84775
#	96600
#	109650
#	121875
#	131375
#	142550
#	156225
#	168475
#	180762
#	193725
#	203737
#	214750
#
# Disc length: 3041 seconds
#
# Revision: 2
# Processed by: cddbd v1.5.2PL0 Copyright (c) Steve Scherf et al.
# Submitted via: EZCDDA 4.3.2
#
DISCID=110bdf14
DTITLE=The Lovin' Spoonfull - Hums of the Lovin' Spoonfull and The John Sebastia
DTITLE=n Songbook
DYEAR=1900
DGENRE=
TTITLE0=Lovin' You
TTITLE1=Bes' Friends
TTITLE2=Voodoo In My Basment
TTITLE3=Darlin' Companion
TTITLE4=Henry Thomas
TTITLE5=Full Measure
TTITLE6=You And Me And Rain On The Roof
TTITLE7=Coconut Grove
TTITLE8=Nashvill Cats
TTITLE9=Eyes
TTITLE10=Summer In The City
TTITLE11=Do You Belive In Magic
TTITLE12=You Didn't Have To Be So Nice
TTITLE13=She Is Still A Mystery
TTITLE14=Younger Generation
TTITLE15=Six O'Clock
TTITLE16=Jug Band Music
TTITLE17=Blues In The Bottle
TTITLE18=Boredom
TTITLE19=Night Owl Blues
EXTD=
EXTT0=
EXTT1=
EXTT2=
EXTT3=
EXTT4=
EXTT5=
EXTT6=
EXTT7=
EXTT8=
EXTT9=
EXTT10=
EXTT11=
EXTT12=
EXTT13=
EXTT14=
EXTT15=
EXTT16=
EXTT17=
EXTT18=
EXTT19=
PLAYORDER=
